# xmcd
#
# Track frame offsets:
#	150
#	36662
#	70429
#	96038
#	117093
#	143288
#	174829
#	188669
#	221516
#	237306
#	261988
#	280039
#	308456
#	323291
#
# Disc length: 4762 seconds
#
# Revision: 0
# Processed by: cddbd v1.5.2PL0 Copyright (c) Steve Scherf et al.
# Submitted via: audiograbber 1.83.01
#
DISCID=b812980e
DTITLE=Various Artist - Keb Darge digs for P&P Records CD2
DYEAR=1900
DGENRE=
TTITLE0=Dennis Mobley and Fresh Taste - Superstition
TTITLE1=Tony Aiken and Future 2000 - Better Days
TTITLE2=L.J. Waiters - Hooked on Your Line
TTITLE3=Little Scotty - I Want to Dance
TTITLE4=Rudy Stewart - Get Down
TTITLE5=Mary Clarke - Take Me I'm Yours
TTITLE6=Caress - Brand New Love
TTITLE7=Eddy Cheba - Looking Good
TTITLE8=Bobby Mann - Spank Me
TTITLE9=Kim Taylor - Stomp Your Feet and Dance
TTITLE10=Foster Jackson Group - Feel The Spirit
TTITLE11=Dream Lovers - African Rock
TTITLE12=Little Scotty - Going To A Disco Tonight
TTITLE13=Scott Davis - NY Applejack
EXTD=
EXTT0=
EXTT1=
EXTT2=
EXTT3=
EXTT4=
EXTT5=
EXTT6=
EXTT7=
EXTT8=
EXTT9=
EXTT10=
EXTT11=
EXTT12=
EXTT13=
PLAYORDER=
